<?xml version="1.0" encoding="UTF-8"?>
<!DOCTYPE svg PUBLIC "-//W3C//DTD SVG 1.1//EN" "http://www.w3.org/Graphics/SVG/1.1/DTD/svg11.dtd">
<!-- Creator: CorelDRAW 2020 (64-Bit) -->
<!--suppress XmlUnusedNamespaceDeclaration, XmlUnusedNamespaceDeclaration, XmlHighlighting -->
<svg xmlns="http://www.w3.org/2000/svg" xml:space="preserve" width="4.13386in" height="2.3622in" version="1.1" shape-rendering="geometricPrecision" text-rendering="geometricPrecision" image-rendering="optimizeQuality" fill-rule="evenodd" clip-rule="evenodd"
viewBox="0 0 4133.86 2362.2"
 xmlns:xlink="http://www.w3.org/1999/xlink"
 xmlns:xodm="http://www.corel.com/coreldraw/odm/2003">
 <g id="Layer_x0020_1">
  <metadata id="CorelCorpID_0Corel-Layer"/>
  <rect id="bg" fill="#FEFEFE" x="-3.07" y="2.23" width="4133.86" height="222.54"/>
  <rect fill="#EBF3F3" x="-3.07" y="224.78" width="4133.86" height="757.58"/>
  <rect fill="#FDEFE1" x="-3.07" y="1734.53" width="4133.86" height="629.9"/>
  <rect fill="#F6F8DC" x="-3.07" y="979.03" width="4133.86" height="755.51"/>
  <g id="Config_x0020_sample">
   <rect id="bg_0" fill="#272C34" stroke="#2B2A29" stroke-width="6.94" stroke-miterlimit="2.61313" x="1682.05" y="68.69" width="1146.49" height="2247.63" rx="59.58" ry="154.37"/>
   <g id="ctls">
    <circle fill="#EB5C50" cx="1773.94" cy="144.67" r="44.45"/>
    <circle fill="#FBBB29" cx="1885.83" cy="144.67" r="44.45"/>
    <circle fill="#3EAB3F" cx="2006.91" cy="144.67" r="44.45"/>
   </g>
   <text x="1732.66" y="1839.56" id="flowir" fill="#E5C07B" font-weight="500" font-size="83.33px" font-family="JetBrains Mono Medium">[device.flowIR]</text>
   <text x="1932.65" y="1949.54" id="flowir" fill="#2B2A29" font-weight="500" font-size="83.33px" font-family="JetBrains Mono Medium"> </text>
   <text x="2032.64" y="1949.54" id="flowir" fill="#2B2A29" font-weight="500" font-size="83.33px" font-family="JetBrains Mono Medium"> </text>
   <text x="1732.66" y="1949.54" id="flowir" fill="#56B6C2" font-weight="500" font-size="83.33px" font-family="JetBrains Mono Medium">type</text>
   <text x="1982.64" y="1949.54" id="flowir" fill="#EDF0F1" font-weight="500" font-size="83.33px" font-family="JetBrains Mono Medium">=</text>
   <text x="2082.63" y="1949.54" id="flowir" fill="#98C379" font-weight="500" font-size="83.33px" font-family="JetBrains Mono Medium">&quot;IcIR&quot;</text>
   <text x="1732.66" y="2059.53" id="flowir" fill="#56B6C2" font-weight="500" font-size="83.33px" font-family="JetBrains Mono Medium">url </text>
   <text x="1932.65" y="2059.53" id="flowir" fill="#EDF0F1" font-weight="500" font-size="83.33px" font-family="JetBrains Mono Medium">= </text>
   <text x="2032.64" y="2059.53" id="flowir" fill="#98C379" font-weight="500" font-size="83.33px" font-family="JetBrains Mono Medium">&quot;opc.tcp://...&quot;</text>
   <text x="1732.66" y="2169.52" id="flowir" fill="#56B6C2" font-weight="500" font-size="83.33px" font-family="JetBrains Mono Medium">template </text>
   <text x="2182.63" y="2169.52" id="flowir" fill="#EDF0F1" font-weight="500" font-size="83.33px" font-family="JetBrains Mono Medium">= </text>
   <text x="2282.62" y="2169.52" id="flowir" fill="#98C379" font-weight="500" font-size="83.33px" font-family="JetBrains Mono Medium">&quot;...&quot;</text>
   <text x="1732.66" y="1127.28" id="valve" fill="#E5C07B" font-weight="500" font-size="83.33px" font-family="JetBrains Mono Medium">[device.inj-valve]</text>
   <text x="1932.65" y="1237.26" id="valve" fill="#2B2A29" font-weight="500" font-size="83.33px" font-family="JetBrains Mono Medium"> </text>
   <text x="2032.64" y="1237.26" id="valve" fill="#2B2A29" font-weight="500" font-size="83.33px" font-family="JetBrains Mono Medium"> </text>
   <text x="1732.66" y="1237.26" id="valve" fill="#56B6C2" font-weight="500" font-size="83.33px" font-family="JetBrains Mono Medium">type</text>
   <text x="1982.64" y="1237.26" id="valve" fill="#EDF0F1" font-weight="500" font-size="83.33px" font-family="JetBrains Mono Medium">=</text>
   <text x="2082.63" y="1237.26" id="valve" fill="#98C379" font-weight="500" font-size="83.33px" font-family="JetBrains Mono Medium">&quot;ViciValve&quot;</text>
   <text x="1732.66" y="1347.25" id="valve" fill="#56B6C2" font-weight="500" font-size="83.33px" font-family="JetBrains Mono Medium">port </text>
   <text x="1982.64" y="1347.25" id="valve" fill="#EDF0F1" font-weight="500" font-size="83.33px" font-family="JetBrains Mono Medium">= </text>
   <text x="2082.63" y="1347.25" id="valve" fill="#98C379" font-weight="500" font-size="83.33px" font-family="JetBrains Mono Medium">&quot;COM4&quot;</text>
   <text x="1732.66" y="1457.24" id="valve" fill="#56B6C2" font-weight="500" font-size="83.33px" font-family="JetBrains Mono Medium">address </text>
   <text x="2132.63" y="1457.24" id="valve" fill="#EDF0F1" font-weight="500" font-size="83.33px" font-family="JetBrains Mono Medium">= </text>
   <text x="2232.62" y="1457.24" id="valve" fill="#98C379" font-weight="500" font-size="83.33px" font-family="JetBrains Mono Medium">0</text>
   <text x="1732.66" y="347.21" id="hplcpump" fill="#E5C07B" font-weight="500" font-size="83.32px" font-family="JetBrains Mono Medium">[device.pump1]</text>
   <text x="1932.63" y="457.19" id="hplcpump" fill="#2B2A29" font-weight="500" font-size="83.32px" font-family="JetBrains Mono Medium"> </text>
   <text x="2032.61" y="457.19" id="hplcpump" fill="#2B2A29" font-weight="500" font-size="83.32px" font-family="JetBrains Mono Medium"> </text>
   <text x="1732.66" y="457.19" id="hplcpump" fill="#56B6C2" font-weight="500" font-size="83.32px" font-family="JetBrains Mono Medium">type</text>
   <text x="1982.62" y="457.19" id="hplcpump" fill="#EDF0F1" font-weight="500" font-size="83.32px" font-family="JetBrains Mono Medium">=</text>
   <text x="2082.61" y="457.19" id="hplcpump" fill="#98C379" font-weight="500" font-size="83.32px" font-family="JetBrains Mono Medium">&quot;AzuraCompact&quot;</text>
   <text x="1732.66" y="567.18" id="hplcpump" fill="#56B6C2" font-weight="500" font-size="83.32px" font-family="JetBrains Mono Medium">ip_address</text>
   <text x="2232.58" y="567.18" id="hplcpump" fill="#EDF0F1" font-weight="500" font-size="83.32px" font-family="JetBrains Mono Medium">=</text>
   <text x="2282.57" y="567.18" id="hplcpump" fill="#98C379" font-weight="500" font-size="83.32px" font-family="JetBrains Mono Medium">&quot;10.0.0.1&quot;</text>
   <text x="1732.66" y="677.16" id="hplcpump" fill="#56B6C2" font-weight="500" font-size="83.32px" font-family="JetBrains Mono Medium">max_pressure</text>
   <text x="2332.57" y="677.16" id="hplcpump" fill="#EDF0F1" font-weight="500" font-size="83.32px" font-family="JetBrains Mono Medium">=</text>
   <text x="2382.56" y="677.16" id="hplcpump" fill="#98C379" font-weight="500" font-size="83.32px" font-family="JetBrains Mono Medium">&quot;10 bar&quot;</text>
   <text x="2111.51" y="179.68" id="title" fill="#EBECEC" font-weight="bold" font-size="83.33px" font-family="JetBrains Mono">devices.toml</text>
  </g>
  <g id="_2030624796192">
   <g>
    <path fill="#5B5B5B" fill-rule="nonzero" d="M1035.23 1296.26l-0.06 -13.89 27.78 -0.13 0.06 13.89 -27.78 0.13zm-41.67 0.19l-0.06 -13.89 27.78 -0.13 0.06 13.89 -27.78 0.13zm-41.67 0.19l-0.06 -13.89 27.78 -0.13 0.06 13.89 -27.78 0.13zm-41.67 0.19l-0.06 -13.89 27.78 -0.13 0.06 13.89 -27.78 0.13zm-41.67 0.19l-0.06 -13.89 27.78 -0.13 0.06 13.89 -27.78 0.13zm-41.67 0.19l-0.06 -13.89 27.78 -0.13 0.06 13.89 -27.78 0.13zm-41.67 0.19l-0.06 -13.89 27.78 -0.13 0.06 13.89 -27.78 0.13zm-41.67 0.19l-0.06 -13.89 27.78 -0.13 0.06 13.89 -27.78 0.13zm-41.67 0.19l-0.06 -13.89 27.78 -0.13 0.06 13.89 -27.78 0.13zm-41.67 0.19l-0.06 -13.89 27.78 -0.13 0.06 13.89 -27.78 0.13zm-41.67 0.19l-0.06 -13.89 27.78 -0.13 0.06 13.89 -27.78 0.13zm-41.67 0.19l-0.06 -13.89 27.78 -0.13 0.06 13.89 -27.78 0.13zm-41.67 0.2l-0.06 -13.89 27.78 -0.13 0.06 13.89 -27.78 0.13zm-41.67 0.2l-0.06 -13.89 27.78 -0.13 0.06 13.89 -27.78 0.13zm-0.93 29.66l-66.7 -36.29 66.36 -36.9 0.34 73.19z"/>
   </g>
   <g>
    <path fill="#5B5B5B" fill-rule="nonzero" d="M976.52 533.16l0 -13.89 27.78 0 0 13.89 -27.78 0zm-41.67 0l0 -13.89 27.78 0 0 13.89 -27.78 0zm-41.67 0l0 -13.89 27.78 0 0 13.89 -27.78 0zm-41.67 0l0 -13.89 27.78 0 0 13.89 -27.78 0zm-41.67 0l0 -13.89 27.78 0 0 13.89 -27.78 0zm-41.67 0l0 -13.89 27.78 0 0 13.89 -27.78 0zm-41.67 0l0 -13.89 27.78 0 0 13.89 -27.78 0zm-41.67 0l0 -13.89 27.78 0 0 13.89 -27.78 0zm-41.67 0l0 -13.89 27.78 0 0 13.89 -27.78 0zm-41.67 0l0 -13.89 27.78 0 0 13.89 -27.78 0zm-41.67 0l0 -13.89 27.78 0 0 13.89 -27.78 0zm-41.67 0l0 -13.89 27.78 0 0 13.89 -27.78 0zm-41.67 0l0 -13.89 27.78 0 0 13.89 -27.78 0zm-41.67 0l0 -13.89 27.78 0 0 13.89 -27.78 0zm-41.67 0l0 -13.89 27.78 0 0 13.89 -27.78 0zm-41.67 0l0 -13.89 27.78 0 0 13.89 -27.78 0zm-41.67 0l0 -13.89 27.78 0 0 13.89 -27.78 0zm-41.67 0l0 -13.89 27.78 0 0 13.89 -27.78 0zm-39.7 -13.89l25.81 0 0 13.89 -25.81 0 -6.94 -6.94 6.94 -6.94zm-6.94 6.94l0 -6.94 6.94 0 -6.94 6.94zm13.89 1.97l-13.89 0 0 -1.97 13.89 0 0 1.97zm0 41.67l-13.89 0 0 -27.78 13.89 0 0 27.78zm0 41.67l-13.89 0 0 -27.78 13.89 0 0 27.78zm0 41.67l-13.89 0 0 -27.78 13.89 0 0 27.78zm0 41.67l-13.89 0 0 -27.78 13.89 0 0 27.78zm0 41.67l-13.89 0 0 -27.78 13.89 0 0 27.78zm0 41.67l-13.89 0 0 -27.78 13.89 0 0 27.78zm0 41.67l-13.89 0 0 -27.78 13.89 0 0 27.78zm0 41.67l-13.89 0 0 -27.78 13.89 0 0 27.78zm0 41.67l-13.89 0 0 -27.78 13.89 0 0 27.78zm0 41.67l-13.89 0 0 -27.78 13.89 0 0 27.78zm0 41.67l-13.89 0 0 -27.78 13.89 0 0 27.78zm0 41.67l-13.89 0 0 -27.78 13.89 0 0 27.78zm0 41.67l-13.89 0 0 -27.78 13.89 0 0 27.78zm-13.89 29.84l0 -15.95 13.89 0 0 15.95 -13.89 0zm43.54 -5.77l-36.59 66.53 -36.59 -66.53 73.19 0z"/>
   </g>
   <g>
    <path fill="#5B5B5B" fill-rule="nonzero" d="M966.25 1984.66l0 -13.89 27.78 0 0 13.89 -27.78 0zm-41.67 0l0 -13.89 27.78 0 0 13.89 -27.78 0zm-41.67 0l0 -13.89 27.78 0 0 13.89 -27.78 0zm-41.67 0l0 -13.89 27.78 0 0 13.89 -27.78 0zm-41.67 0l0 -13.89 27.78 0 0 13.89 -27.78 0zm-41.67 0l0 -13.89 27.78 0 0 13.89 -27.78 0zm-41.67 0l0 -13.89 27.78 0 0 13.89 -27.78 0zm-41.67 0l0 -13.89 27.78 0 0 13.89 -27.78 0zm-41.67 0l0 -13.89 27.78 0 0 13.89 -27.78 0zm-41.67 0l0 -13.89 27.78 0 0 13.89 -27.78 0zm-41.67 0l0 -13.89 27.78 0 0 13.89 -27.78 0zm-41.67 0l0 -13.89 27.78 0 0 13.89 -27.78 0zm-41.67 0l0 -13.89 27.78 0 0 13.89 -27.78 0zm-41.67 0l0 -13.89 27.78 0 0 13.89 -27.78 0zm-41.67 0l0 -13.89 27.78 0 0 13.89 -27.78 0zm-41.67 0l0 -13.89 27.78 0 0 13.89 -27.78 0zm-41.67 0l0 -13.89 27.78 0 0 13.89 -27.78 0zm-41.67 0l0 -13.89 27.78 0 0 13.89 -27.78 0zm-29.43 -13.89l15.54 0 0 13.89 -15.54 0 -6.94 -6.94 6.94 -6.94zm0 13.89l-6.94 0 0 -6.94 6.94 6.94zm-6.94 -19.19l13.89 0 0 12.25 -13.89 0 0 -12.25zm0 -41.67l13.89 0 0 27.78 -13.89 0 0 -27.78zm0 -41.67l13.89 0 0 27.78 -13.89 0 0 -27.78zm0 -41.67l13.89 0 0 27.78 -13.89 0 0 -27.78zm0 -41.67l13.89 0 0 27.78 -13.89 0 0 -27.78zm0 -41.67l13.89 0 0 27.78 -13.89 0 0 -27.78zm0 -41.67l13.89 0 0 27.78 -13.89 0 0 -27.78zm0 -41.67l13.89 0 0 27.78 -13.89 0 0 -27.78zm0 -41.67l13.89 0 0 27.78 -13.89 0 0 -27.78zm0 -41.67l13.89 0 0 27.78 -13.89 0 0 -27.78zm13.89 -40.09l0 26.2 -13.89 0 0 -26.2 13.89 0zm-43.54 5.77l36.59 -66.53 36.59 66.53 -73.19 0z"/>
   </g>
  </g>
  <g>
   <text x="557.78" y="1242.24" id="rs232" fill="#5B5B5B" font-weight="normal" font-size="138.89px" font-family="Arial">RS232</text>
   <text x="321.89" y="479.1" id="eth" fill="#5B5B5B" font-weight="normal" font-size="138.89px" font-family="Arial">Ethernet</text>
   <text x="316.78" y="1931.07" id="opcua" fill="#5B5B5B" font-weight="normal" font-size="138.89px" font-family="Arial">OPC UA</text>
  </g>
  <g id="PC">
   <path fill="black" fill-rule="nonzero" d="M30.98 1160.48l0 263.3 164.56 0 0 32.91 -65.82 0 0 32.91 197.47 0 0 -32.91 -65.82 0 0 -32.91 164.56 0 0 -263.3 -394.94 0zm32.91 32.91l329.12 0 0 197.47 -329.12 0 0 -197.47z"/>
   <text x="97.7" y="1362.72" id="PC_1" fill="#2B2A29" font-weight="bold" font-size="194.44px" font-family="Arial">PC</text>
  </g>
  <g id="HPLC-group">
   <g id="HPLC">
    <rect fill="#5B5B5B" x="1019.79" y="776.15" width="120.62" height="43.85" rx="28.14" ry="31.69"/>
    <rect fill="#5B5B5B" x="1298.19" y="776.15" width="120.62" height="43.85" rx="28.14" ry="31.69"/>
    <g>
     <polygon fill="#FEFEFE" points="954.02,254.35 1484.59,254.35 1484.59,798.07 954.02,798.07 "/>
     <path id="1" fill="#005555" fill-rule="nonzero" d="M1484.59 257.81l-530.57 0 0 -6.92 530.57 0 3.47 3.46 -3.47 3.46zm0 -6.92l3.47 0 0 3.46 -3.47 -3.46zm-3.47 547.18l0 -543.72 6.94 0 0 543.72 -3.47 3.46 -3.47 -3.46zm6.94 0l0 3.46 -3.47 0 3.47 -3.46zm-534.04 -3.46l530.57 0 0 6.92 -530.57 0 -3.47 -3.46 3.47 -3.46zm0 6.92l-3.47 0 0 -3.46 3.47 3.46zm3.47 -547.18l0 543.72 -6.94 0 0 -543.72 3.47 -3.46 3.47 3.46zm-6.94 0l0 -3.46 3.47 0 -3.47 3.46z"/>
    </g>
    <g>
     <path fill="#2B2A29" d="M956.17 253.19l530.57 0 0 150.22 -530.57 0 0 -150.22zm529.02 1.56l-527.47 0 0 147.11 527.47 0 0 -147.11z"/>
    </g>
    <g>
     <path fill="#2B2A29" fill-rule="nonzero" d="M1132.37 293.19l-114.32 0 0 -0.77 114.32 0 0 0 0 0.77zm8.21 7.44l-0.77 0 0 0 -0.01 -0.38 -0.03 -0.37 -0.05 -0.37 -0.07 -0.36 -0.08 -0.36 -0.1 -0.35 -0.11 -0.34 -0.13 -0.34 -0.15 -0.33 -0.17 -0.32 -0.18 -0.31 -0.19 -0.3 -0.21 -0.29 -0.22 -0.28 -0.23 -0.27 -0.24 -0.26 -0.26 -0.25 -0.27 -0.24 -0.28 -0.22 -0.3 -0.21 -0.3 -0.19 -0.31 -0.18 -0.32 -0.16 -0.33 -0.15 -0.33 -0.13 -0.34 -0.11 -0.35 -0.1 -0.36 -0.08 -0.36 -0.07 -0.37 -0.05 -0.38 -0.03 -0.38 -0.01 0 -0.77 0.42 0.01 0.42 0.03 0.41 0.06 0.4 0.07 0.39 0.09 0.39 0.11 0.38 0.13 0.37 0.15 0.36 0.16 0.35 0.19 0.34 0.2 0.33 0.22 0.32 0.22 0.31 0.24 0.3 0.26 0.28 0.27 0.28 0.29 0.26 0.3 0.24 0.31 0.23 0.32 0.22 0.33 0.19 0.34 0.18 0.35 0.17 0.37 0.15 0.37 0.13 0.38 0.11 0.39 0.09 0.4 0.07 0.4 0.06 0.41 0.03 0.41 0.01 0.42 0 0zm-0.77 51.13l0 -51.13 0.77 0 0 51.13 0 0 -0.77 0zm-7.44 8.2l0 -0.77 0 0 0.38 -0.01 0.38 -0.03 0.37 -0.05 0.36 -0.07 0.36 -0.08 0.35 -0.1 0.34 -0.11 0.34 -0.14 0.33 -0.15 0.32 -0.16 0.31 -0.18 0.3 -0.19 0.29 -0.21 0.29 -0.22 0.27 -0.23 0.26 -0.25 0.24 -0.26 0.23 -0.27 0.22 -0.28 0.21 -0.29 0.19 -0.3 0.18 -0.31 0.17 -0.32 0.15 -0.33 0.13 -0.33 0.11 -0.34 0.1 -0.35 0.08 -0.36 0.07 -0.36 0.05 -0.37 0.03 -0.37 0.01 -0.38 0.77 0 -0.01 0.42 -0.03 0.41 -0.06 0.41 -0.07 0.4 -0.09 0.4 -0.11 0.39 -0.13 0.38 -0.15 0.37 -0.17 0.36 -0.18 0.35 -0.19 0.34 -0.22 0.33 -0.23 0.32 -0.24 0.31 -0.26 0.3 -0.28 0.29 -0.28 0.27 -0.3 0.26 -0.31 0.24 -0.32 0.23 -0.33 0.22 -0.34 0.2 -0.36 0.19 -0.36 0.16 -0.37 0.15 -0.38 0.13 -0.39 0.11 -0.39 0.09 -0.4 0.07 -0.41 0.06 -0.42 0.03 -0.42 0.01 0 0zm-114.32 -0.77l114.32 0 0 0.77 -114.32 0 0 0 0 -0.77zm-8.21 -7.43l0.77 0 0 0 0.01 0.38 0.03 0.37 0.05 0.37 0.07 0.36 0.08 0.36 0.1 0.35 0.11 0.34 0.13 0.33 0.15 0.33 0.17 0.32 0.18 0.31 0.19 0.3 0.21 0.29 0.22 0.28 0.23 0.27 0.25 0.26 0.26 0.25 0.27 0.23 0.28 0.22 0.29 0.21 0.3 0.19 0.31 0.18 0.31 0.16 0.33 0.15 0.34 0.14 0.34 0.11 0.35 0.1 0.36 0.08 0.36 0.07 0.37 0.05 0.37 0.03 0.38 0.01 0 0.77 -0.42 -0.01 -0.41 -0.03 -0.41 -0.06 -0.4 -0.07 -0.4 -0.09 -0.39 -0.11 -0.38 -0.13 -0.37 -0.15 -0.36 -0.16 -0.35 -0.19 -0.34 -0.2 -0.33 -0.22 -0.32 -0.23 -0.31 -0.24 -0.3 -0.26 -0.28 -0.27 -0.27 -0.29 -0.26 -0.3 -0.24 -0.31 -0.22 -0.32 -0.22 -0.33 -0.2 -0.34 -0.18 -0.35 -0.17 -0.36 -0.15 -0.37 -0.13 -0.38 -0.11 -0.39 -0.09 -0.4 -0.07 -0.4 -0.06 -0.41 -0.03 -0.41 -0.01 -0.42 0 0zm0.77 -51.13l0 51.13 -0.77 0 0 -51.13 0 0 0.77 0zm7.44 -8.21l0 0.77 0 0 -0.38 0.01 -0.37 0.03 -0.37 0.05 -0.36 0.07 -0.36 0.08 -0.35 0.1 -0.34 0.11 -0.34 0.13 -0.33 0.15 -0.32 0.17 -0.31 0.18 -0.3 0.2 -0.29 0.2 -0.28 0.22 -0.27 0.24 -0.26 0.25 -0.25 0.26 -0.23 0.27 -0.22 0.28 -0.21 0.29 -0.19 0.3 -0.18 0.31 -0.17 0.32 -0.15 0.33 -0.13 0.34 -0.11 0.34 -0.1 0.35 -0.08 0.36 -0.07 0.36 -0.05 0.37 -0.03 0.37 -0.01 0.38 -0.77 0 0.01 -0.42 0.03 -0.41 0.06 -0.41 0.07 -0.4 0.09 -0.4 0.11 -0.39 0.13 -0.38 0.15 -0.37 0.17 -0.37 0.18 -0.35 0.2 -0.34 0.22 -0.33 0.22 -0.32 0.24 -0.31 0.26 -0.3 0.27 -0.29 0.28 -0.27 0.3 -0.26 0.31 -0.24 0.32 -0.23 0.33 -0.21 0.34 -0.2 0.35 -0.18 0.37 -0.17 0.37 -0.15 0.38 -0.13 0.39 -0.11 0.4 -0.09 0.4 -0.07 0.41 -0.06 0.41 -0.03 0.42 -0.01 0 0z"/>
    </g>
    <g>
     <rect fill="none" stroke="#2B2A29" stroke-width="6.94" stroke-miterlimit="2.61313" x="1205.02" y="295.64" width="46.88" height="29.84" rx="8.77" ry="8.77"/>
     <g>
      <line fill="none" stroke="#2B2A29" stroke-width="6.94" stroke-miterlimit="2.61313" x1="1205.02" y1="313.55" x2="1251.91" y2= "313.47" />
     </g>
     <text x="1220.33" y="314.24"  fill="#2B2A29" font-weight="normal" font-size="27.83px" font-family="Arial">&lt;</text>
     <text x="1223.04" y="326.41"  fill="#2B2A29" font-weight="normal" font-size="18.55px" font-family="Arial">−</text>
    </g>
    <g>
     <rect fill="none" stroke="#2B2A29" stroke-width="6.94" stroke-miterlimit="2.61313" x="1259.86" y="295.64" width="46.88" height="29.84" rx="8.77" ry="8.77"/>
     <g>
      <line fill="none" stroke="#2B2A29" stroke-width="6.94" stroke-miterlimit="2.61313" x1="1259.86" y1="313.55" x2="1306.75" y2= "313.47" />
     </g>
     <text x="1275.18" y="314.24"  fill="#2B2A29" font-weight="normal" font-size="27.83px" font-family="Arial">&gt;</text>
     <text x="1277.88" y="326.41"  fill="#2B2A29" font-weight="normal" font-size="18.55px" font-family="Arial">+</text>
    </g>
    <rect fill="none" stroke="#2B2A29" stroke-width="6.94" stroke-miterlimit="2.61313" x="1359.05" y="295.64" width="46.88" height="29.84" rx="8.77" ry="8.77"/>
    <g>
     <line fill="none" stroke="#2B2A29" stroke-width="6.94" stroke-miterlimit="2.61313" x1="1219.3" y1="254.35" x2="1219.3" y2= "254.35" />
    </g>
    <g>
     <line fill="none" stroke="#2B2A29" stroke-width="6.94" stroke-miterlimit="2.61313" x1="1219.3" y1="254.35" x2="1219.3" y2= "254.35" />
    </g>
    <g>
     <line fill="none" stroke="#2B2A29" stroke-width="6.94" stroke-miterlimit="2.61313" x1="1219.3" y1="254.35" x2="1219.3" y2= "254.35" />
    </g>
    <g>
     <line fill="none" stroke="#2B2A29" stroke-width="6.94" stroke-miterlimit="2.61313" x1="1219.3" y1="254.35" x2="1219.3" y2= "254.35" />
    </g>
    <g>
     <line fill="none" stroke="#2B2A29" stroke-width="6.94" stroke-miterlimit="2.61313" x1="1219.3" y1="254.35" x2="1219.3" y2= "254.35" />
    </g>
    <g>
     <line fill="none" stroke="#2B2A29" stroke-width="6.94" stroke-miterlimit="2.61313" x1="1219.3" y1="254.35" x2="1219.3" y2= "254.35" />
    </g>
    <g>
     <line fill="none" stroke="#2B2A29" stroke-width="6.94" stroke-miterlimit="2.61313" x1="1219.3" y1="254.35" x2="1219.3" y2= "254.35" />
    </g>
    <g>
     <line fill="none" stroke="#2B2A29" stroke-width="6.94" stroke-miterlimit="2.61313" x1="1219.3" y1="254.35" x2="1219.3" y2= "254.35" />
    </g>
    <g>
     <rect fill="none" stroke="#2B2A29" stroke-width="33.2" stroke-miterlimit="2.61313" x="1369.1" y="305.74" width="9.65" height="9.65"/>
     <g>
      <path fill="#2B2A29" fill-rule="nonzero" d="M1384.44 305.74l-2.32 0 0 -1.16 2.32 0 0 1.16zm-2.32 9.65l0 -9.65 2.32 0 0 9.65 -2.32 0zm0 0l2.32 0 0 1.16 -2.32 0 0 -1.16z"/>
     </g>
     <g>
      <path fill="#2B2A29" fill-rule="nonzero" d="M1391.14 311.97l4.18 -2.41 1.16 2.01 -4.18 2.41 0 0 -1.16 -2.01zm-4.18 2.41l4.18 -2.41 1.16 2.01 -4.18 2.41 -1.74 -1 0.58 -1zm1.16 2.01l-1.74 1 0 -2.01 1.74 1zm0.58 -5.83l0 4.82 -2.32 0 0 -4.82 0 0 2.32 0zm0 -4.82l0 4.82 -2.32 0 0 -4.82 1.74 -1 0.58 1zm-2.32 0l0 -2.01 1.74 1 -1.74 1zm4.76 3.42l-4.18 -2.41 1.16 -2.01 4.18 2.41 -1.16 2.01zm4.18 2.41l-4.18 -2.41 1.16 -2.01 4.18 2.41 0 2.01 -1.16 0zm1.16 -2.01l1.74 1 -1.74 1 0 -2.01z"/>
     </g>
    </g>
    <g>
     <g>
      <rect fill="none" stroke="#2B2A29" stroke-width="6.94" stroke-miterlimit="2.61313" x="1249.34" y="736.01" width="26.14" height="15.84"/>
      <g>
       <path fill="#2B2A29" fill-rule="nonzero" d="M1270.51 736.39l-16.2 0 0 -0.77 16.2 0 0.39 0.39 -0.39 0.39zm0 -0.77l0.39 0 0 0.39 -0.39 -0.39zm-0.39 16.23l0 -15.84 0.78 0 0 15.84 -0.39 0.39 -0.39 -0.39zm0.78 0l0 0.39 -0.39 0 0.39 -0.39zm-16.59 -0.39l16.2 0 0 0.77 -16.2 0 -0.39 -0.39 0.39 -0.39zm0 0.77l-0.39 0 0 -0.39 0.39 0.39zm0.39 -16.23l0 15.84 -0.78 0 0 -15.84 0.39 -0.39 0.39 0.39zm-0.78 0l0 -0.39 0.39 0 -0.39 0.39z"/>
      </g>
     </g>
     <rect fill="none" stroke="#2B2A29" stroke-width="6.94" stroke-miterlimit="2.61313" x="1255.87" y="723.58" width="13.08" height="12.43"/>
    </g>
    <g>
     <g>
      <rect fill="none" stroke="#2B2A29" stroke-width="6.94" stroke-miterlimit="2.61313" x="1243.88" y="511.46" width="26.14" height="15.84"/>
      <g>
       <path fill="#2B2A29" fill-rule="nonzero" d="M1248.85 526.91l16.2 0 0 0.77 -16.2 0 -0.39 -0.39 0.39 -0.39zm0 0.77l-0.39 0 0 -0.39 0.39 0.39zm0.39 -16.22l0 15.84 -0.78 0 0 -15.84 0.39 -0.39 0.39 0.39zm-0.78 0l0 -0.39 0.39 0 -0.39 0.39zm16.59 0.39l-16.2 0 0 -0.77 16.2 0 0.39 0.39 -0.39 0.39zm0 -0.77l0.39 0 0 0.39 -0.39 -0.39zm-0.39 16.22l0 -15.84 0.78 0 0 15.84 -0.39 0.39 -0.39 -0.39zm0.78 0l0 0.39 -0.39 0 0.39 -0.39z"/>
      </g>
     </g>
     <rect fill="none" stroke="#2B2A29" stroke-width="6.94" stroke-miterlimit="2.61313" x="1250.4" y="527.3" width="13.08" height="12.43"/>
    </g>
    <g>
     <g>
      <rect fill="none" stroke="#2B2A29" stroke-width="6.94" stroke-miterlimit="2.61313" x="1364.29" y="511.46" width="26.14" height="15.84"/>
      <g>
       <path fill="#2B2A29" fill-rule="nonzero" d="M1369.26 526.91l16.19 0 0 0.77 -16.19 0 -0.39 -0.39 0.39 -0.39zm0 0.77l-0.39 0 0 -0.39 0.39 0.39zm0.39 -16.22l0 15.84 -0.78 0 0 -15.84 0.39 -0.39 0.39 0.39zm-0.78 0l0 -0.39 0.39 0 -0.39 0.39zm16.58 0.39l-16.19 0 0 -0.77 16.19 0 0.39 0.39 -0.39 0.39zm0 -0.77l0.39 0 0 0.39 -0.39 -0.39zm-0.39 16.22l0 -15.84 0.78 0 0 15.84 -0.39 0.39 -0.39 -0.39zm0.78 0l0 0.39 -0.39 0 0.39 -0.39z"/>
      </g>
     </g>
     <rect fill="none" stroke="#2B2A29" stroke-width="6.94" stroke-miterlimit="2.61313" x="1370.82" y="527.3" width="13.08" height="12.43"/>
    </g>
    <g>
     <g>
      <rect fill="none" stroke="#2B2A29" stroke-width="6.94" stroke-miterlimit="2.61313" x="1364.58" y="736.01" width="26.14" height="15.84"/>
      <g>
       <path fill="#2B2A29" fill-rule="nonzero" d="M1385.75 736.39l-16.2 0 0 -0.77 16.2 0 0.39 0.39 -0.39 0.39zm0 -0.77l0.39 0 0 0.39 -0.39 -0.39zm-0.39 16.23l0 -15.84 0.78 0 0 15.84 -0.39 0.39 -0.39 -0.39zm0.78 0l0 0.39 -0.39 0 0.39 -0.39zm-16.59 -0.39l16.2 0 0 0.77 -16.2 0 -0.39 -0.39 0.39 -0.39zm0 0.77l-0.39 0 0 -0.39 0.39 0.39zm0.39 -16.23l0 15.84 -0.78 0 0 -15.84 0.39 -0.39 0.39 0.39zm-0.78 0l0 -0.39 0.39 0 -0.39 0.39z"/>
      </g>
     </g>
     <rect fill="none" stroke="#2B2A29" stroke-width="6.94" stroke-miterlimit="2.61313" x="1371.11" y="723.58" width="13.08" height="12.43"/>
    </g>
    <rect fill="#EBECEC" stroke="#2B2A29" stroke-width="19.41" stroke-miterlimit="2.61313" x="1198.92" y="536.18" width="248.25" height="191.19" rx="21.92" ry="21.92"/>
    <g>
     <g>
      <rect fill="none" stroke="#2B2A29" stroke-width="6.94" stroke-miterlimit="2.61313" x="1052.13" y="718.6" width="26.14" height="15.84"/>
      <g>
       <path fill="#2B2A29" fill-rule="nonzero" d="M1073.29 718.98l-16.19 0 0 -0.77 16.19 0 0.39 0.39 -0.39 0.39zm0 -0.77l0.39 0 0 0.39 -0.39 -0.39zm-0.39 16.23l0 -15.84 0.78 0 0 15.84 -0.39 0.39 -0.39 -0.39zm0.78 0l0 0.39 -0.39 0 0.39 -0.39zm-16.58 -0.39l16.19 0 0 0.77 -16.19 0 -0.39 -0.39 0.39 -0.39zm0 0.77l-0.39 0 0 -0.39 0.39 0.39zm0.39 -16.23l0 15.84 -0.78 0 0 -15.84 0.39 -0.39 0.39 0.39zm-0.78 0l0 -0.39 0.39 0 -0.39 0.39z"/>
      </g>
     </g>
     <rect fill="none" stroke="#2B2A29" stroke-width="6.94" stroke-miterlimit="2.61313" x="1058.66" y="706.17" width="13.08" height="12.43"/>
    </g>
    <g>
     <g>
      <rect fill="none" stroke="#2B2A29" stroke-width="6.94" stroke-miterlimit="2.61313" x="1050.89" y="525.94" width="26.14" height="15.84"/>
      <g>
       <path fill="#2B2A29" fill-rule="nonzero" d="M1055.86 541.39l16.19 0 0 0.77 -16.19 0 -0.39 -0.39 0.39 -0.39zm0 0.77l-0.39 0 0 -0.39 0.39 0.39zm0.39 -16.23l0 15.84 -0.78 0 0 -15.84 0.39 -0.39 0.39 0.39zm-0.78 0l0 -0.39 0.39 0 -0.39 0.39zm16.58 0.39l-16.19 0 0 -0.77 16.19 0 0.39 0.39 -0.39 0.39zm0 -0.77l0.39 0 0 0.39 -0.39 -0.39zm-0.39 16.23l0 -15.84 0.78 0 0 15.84 -0.39 0.39 -0.39 -0.39zm0.78 0l0 0.39 -0.39 0 0.39 -0.39z"/>
      </g>
     </g>
     <rect fill="none" stroke="#2B2A29" stroke-width="6.94" stroke-miterlimit="2.61313" x="1057.42" y="541.78" width="13.08" height="12.43"/>
    </g>
    <circle fill="#FEFEFE" stroke="#2B2A29" stroke-width="6.94" stroke-miterlimit="2.61313" cx="1265.31" cy="630.75" r="41.6"/>
    <circle fill="#FEFEFE" stroke="#2B2A29" stroke-width="6.94" stroke-miterlimit="2.61313" cx="1374.19" cy="630.75" r="41.6"/>
    <circle fill="#FEFEFE" stroke="#2B2A29" stroke-width="20.83" stroke-miterlimit="2.61313" cx="1063.96" cy="629.44" r="81.43"/>
    <circle fill="#5B5B5B" stroke="#2B2A29" stroke-width="89.92" stroke-miterlimit="2.61313" stroke-dasharray="7.732283 3.866142" cx="1063.96" cy="629.44" r="31.44"/>
    <text x="1064.17" y="326.66"  fill="#2B2A29" font-weight="normal" font-size="37.11px" font-family="Consolas">4.2</text>
    <text x="1048.74" y="353.64"  fill="#2B2A29" font-weight="normal" font-size="27.83px" font-family="Consolas">1.200</text>
    <g transform="matrix(0.877188 0 0 1 -668.756 -860.147)">
     <text x="2066.93" y="1181.1"  fill="#2B2A29" font-weight="bold" font-size="12.36px" font-family="Arial">0.1 MPa</text>
    </g>
    <text x="1143.87" y="349.47"  fill="#2B2A29" font-weight="bold" font-size="12.36px" font-family="Arial">ml/min</text>
    <polyline fill="none" stroke="#5B5A50" stroke-width="41.67" stroke-miterlimit="2.61313" points="1065.2,734.44 1065.2,776.15 1262.86,776.15 1262.86,751.85 "/>
    <path fill="none" stroke="#5B5A50" stroke-width="41.67" stroke-miterlimit="2.61313" d="M1377.36 511.46l0 -21.83c0.14,-24.47 -23.33,-52.82 -58.57,-52.73 -38.05,0.09 -61.1,30.88 -61.84,52.7l0 21.87"/>
   </g>
   <text x="915.51" y="933.57"  fill="#005555" font-weight="normal" font-size="111.11px" font-family="Arial">HPLC pump</text>
  </g>
  <g id="ViciValve-group">
   <text x="870.43" y="1693.71"  fill="#636912" font-weight="normal" font-size="111.11px" font-family="Arial">Injection valve</text>
   <g id="Vici_x0020_Valve">
    <rect fill="#FEFEFE" stroke="#636912" stroke-width="6.94" stroke-miterlimit="2.61313" x="1012.69" y="1002" width="415.36" height="574.13"/>
    <g>
     <circle fill="none" stroke="#2B2A29" stroke-width="3.47" stroke-miterlimit="2.61313" cx="1078.57" cy="1509.12" r="29.26"/>
     <polygon fill="none" stroke="#2B2A29" stroke-width="3.47" stroke-miterlimit="2.61313" points="1078.57,1487.82 1087.79,1493.15 1097.02,1498.47 1097.02,1509.12 1097.02,1519.78 1087.79,1525.1 1078.57,1530.43 1069.35,1525.1 1060.12,1519.78 1060.12,1509.12 1060.12,1498.47 1069.35,1493.15 "/>
    </g>
    <g>
     <circle fill="none" stroke="#2B2A29" stroke-width="3.47" stroke-miterlimit="2.61313" cx="1362.03" cy="1509.12" r="29.26"/>
     <polygon fill="none" stroke="#2B2A29" stroke-width="3.47" stroke-miterlimit="2.61313" points="1362.03,1487.82 1371.26,1493.15 1380.48,1498.47 1380.48,1509.12 1380.48,1519.78 1371.26,1525.1 1362.03,1530.43 1352.81,1525.1 1343.59,1519.78 1343.59,1509.12 1343.59,1498.47 1352.81,1493.15 "/>
    </g>
    <g>
     <circle fill="none" stroke="#2B2A29" stroke-width="3.47" stroke-miterlimit="2.61313" cx="1362.03" cy="1078.02" r="29.26"/>
     <polygon fill="none" stroke="#2B2A29" stroke-width="3.47" stroke-miterlimit="2.61313" points="1362.03,1056.72 1371.26,1062.04 1380.48,1067.37 1380.48,1078.02 1380.48,1088.67 1371.26,1094 1362.03,1099.32 1352.81,1094 1343.59,1088.67 1343.59,1078.02 1343.59,1067.37 1352.81,1062.04 "/>
    </g>
    <g>
     <circle fill="none" stroke="#2B2A29" stroke-width="3.47" stroke-miterlimit="2.61313" cx="1078.57" cy="1078.02" r="29.26"/>
     <polygon fill="none" stroke="#2B2A29" stroke-width="3.47" stroke-miterlimit="2.61313" points="1078.57,1056.72 1087.79,1062.04 1097.02,1067.37 1097.02,1078.02 1097.02,1088.67 1087.79,1094 1078.57,1099.32 1069.35,1094 1060.12,1088.67 1060.12,1078.02 1060.12,1067.37 1069.35,1062.04 "/>
    </g>
    <path fill="none" stroke="#393185" stroke-width="41.67" stroke-miterlimit="2.61313" d="M1294.64 1251.44c-15.43,-26.72 -43.94,-43.19 -74.79,-43.19"/>
    <path fill="none" stroke="#393185" stroke-width="41.67" stroke-miterlimit="2.61313" d="M1222.2 1385.87c30.85,0 59.37,-16.46 74.8,-43.18"/>
    <path fill="none" stroke="#393185" stroke-width="41.67" stroke-miterlimit="2.61313" d="M1142.95 1250.02c-15.43,26.72 -15.43,59.65 0,86.37"/>
    <g>
     <circle fill="none" stroke="#2B2A29" stroke-width="13.89" stroke-miterlimit="2.61313" transform="matrix(-0.125259 -0.216955 -0.216955 0.125259 1220.38 1294.63)" r="589.33"/>
     <circle fill="#727271" cx="1220.38" cy="1201.96" r="30.1"/>
     <circle fill="#727271" transform="matrix(-0.25 0.433013 0.433013 0.25 1140.13 1248.3)" r="60.2"/>
     <circle fill="#727271" transform="matrix(-0.25 0.433013 -0.433013 -0.25 1300.63 1340.96)" r="60.2"/>
     <circle fill="#727271" cx="1220.38" cy="1387.29" r="30.1"/>
     <circle fill="#727271" transform="matrix(-0.25 -0.433013 0.433013 -0.25 1140.13 1340.96)" r="60.2"/>
     <circle fill="#727271" transform="matrix(-0.25 -0.433013 -0.433013 0.25 1300.63 1248.3)" r="60.2"/>
     <circle fill="#727271" transform="matrix(-0.25 -0.433013 -0.433013 0.25 1220.38 1294.63)" r="60.2"/>
    </g>
   </g>
  </g>
  <g id="FlowIR-group">
   <text x="819.25" y="2305.98"  fill="#773E00" font-weight="normal" font-size="111.11px" font-family="Arial">IR spectrometer</text>
   <g id="FlowIR">
    <path id="Outer_x0020_frame" fill="#FEFEFE" stroke="#773E00" stroke-width="6.94" stroke-miterlimit="2.61313" d="M991.15 1769.76l446.6 0c32.6,0 59.26,26.67 59.26,59.26l0 297.38c0,32.6 -26.67,59.26 -59.26,59.26l-446.6 0c-26.08,0 -47.41,-21.33 -47.41,-47.41l0 -321.09c0,-26.07 21.33,-47.41 47.41,-47.41z"/>
    <g id="Status_x0020_LEDs">
     <rect fill="none" stroke="#BEBEBE" stroke-width="3.47" stroke-miterlimit="2.61313" x="1300.38" y="1812.47" width="148.77" height="158.52" rx="9.83" ry="9.66"/>
     <g id="Power">
      <circle fill="#4160A8" stroke="#BEBEBE" stroke-width="2.78" stroke-miterlimit="2.61313" cx="1330.35" cy="1927.96" r="11.11"/>
      <text x="1356.24" y="1933.56"  fill="#2B2A29" font-weight="normal" font-size="15.63px" font-family="Arial">POWER</text>
     </g>
     <g id="Scan">
      <circle fill="#4160A8" stroke="#BEBEBE" stroke-width="2.78" stroke-miterlimit="2.61313" cx="1330.35" cy="1889.35" r="11.11"/>
      <text x="1356.72" y="1894.95"  fill="#2B2A29" font-weight="normal" font-size="15.63px" font-family="Arial">SCAN</text>
     </g>
     <g id="Fault">
      <circle fill="none" stroke="#BEBEBE" stroke-width="2.78" stroke-miterlimit="2.61313" cx="1330.35" cy="1848.13" r="11.11"/>
      <text x="1356.16" y="1853.64"  fill="#2B2A29" font-weight="normal" font-size="15.63px" font-family="Arial">FAULT</text>
     </g>
    </g>
    <g id="Name_x0020_tag">
     <rect fill="none" stroke="#BEBEBE" stroke-width="3.47" stroke-miterlimit="2.61313" x="976.84" y="1812.47" width="71.58" height="230.6" rx="4.73" ry="14.05"/>
     <g transform="matrix(1.32423E-13 -1 1 1.32423E-13 -153.496 4090.58)">
      <text x="2066.93" y="1181.1"  fill="#BEBEBE" font-weight="normal" font-size="46.93px" font-family="Arial">FlowIR</text>
      <text x="2212.94" y="1181.1"  fill="#BEBEBE" font-weight="normal" font-size="46.93px" font-family="Arial">™</text>
     </g>
    </g>
    <g id="Flow_x0020_cell">
     <path fill="#3B3838" d="M1172.58 1889.57c5.05,0 10.01,0.41 14.84,1.18 0.4,2.74 1.49,5.34 3.13,7.54l0.17 0.23c0.12,0.15 0.24,0.3 0.35,0.44l0 0 0.19 0.22c0.12,0.15 0.25,0.29 0.38,0.43l0.17 0.19 0.02 0.02 0.2 0.2 0.18 0.18 0.06 0.06 0.18 0.17 0.21 0.2 0.02 0.02 0.19 0.17 0.19 0.16 0.03 0.03 0.2 0.17 0.02 0.02 0.23 0.18 0.2 0.15 0.03 0.02 0.17 0.13 0.06 0.05 0.24 0.17 0.03 0.02 0.21 0.14 0.13 0.09 0.02 0.02 0.28 0.18 0.04 0.03 0.02 0.01 0.25 0.15 0.04 0.02 0.17 0.1 0.05 0.03 0.19 0.11 0.32 0.18 0.04 0.02 0.22 0.12 0.05 0.02 0.17 0.08 0.05 0.03 0.26 0.12 0.01 0.01 0.27 0.12 0.1 0.05 0.03 0.01 0.34 0.14 0.02 0.01 0.06 0.02c0.24,0.1 0.48,0.19 0.73,0.28l0 0 0.41 0.14 0 0 0.39 0.12 0.05 0.01 0.37 0.1 0.02 0.01 0.05 0.01 0.36 0.09 0.02 0c0.54,0.13 1.09,0.24 1.63,0.31l0.02 0c0.39,0.05 0.77,0.09 1.16,0.12l0.06 0c2.19,0.13 4.35,-0.17 6.36,-0.85l0.02 -0.01c0.62,-0.21 1.23,-0.46 1.82,-0.74l0.01 -0.01c0.24,-0.11 0.48,-0.23 0.71,-0.36l0.03 -0.02c1.39,-0.76 2.68,-1.71 3.81,-2.84l0.02 -0.01c8.39,4.39 16.02,10.01 22.66,16.64 -1.25,2.52 -1.84,5.31 -1.73,8.1l0.02 0.28 0 0.02 0.02 0.26c0.04,0.46 0.09,0.93 0.17,1.39l0 0.01c0.13,0.81 0.32,1.61 0.57,2.4l0.05 0.15 0.06 0.18 0.09 0.27 0.02 0.06 0.03 0.07 0.09 0.24 0.03 0.07 0.04 0.09 0.11 0.26 0.01 0.03 0.1 0.24 0.11 0.23 0.02 0.03 0.12 0.26 0 0.01 0.13 0.26 0.11 0.2 0.03 0.06 0.11 0.21 0.02 0.04 0.15 0.26 0.04 0.07 0.11 0.19 0.11 0.18 0.05 0.07 0.16 0.25 0.02 0.03 0.14 0.22 0.09 0.14 0.02 0.03 0.2 0.28 0.03 0.04 0 0 0.18 0.24 0.01 0.02 0.15 0.2 0.02 0.02 0.16 0.2 0.02 0.04 0.24 0.28 0.04 0.04 0.2 0.23 0.05 0.06 0.06 0.06 0.2 0.22 0.03 0.04 0.04 0.04 0.24 0.24 0.02 0.02 0.28 0.27 0.01 0 0 0.01 0.03 0.03 0.24 0.22 0.03 0.03 0.12 0.1 0.19 0.17 0.02 0.02c0.2,0.17 0.41,0.34 0.61,0.5l0 0 0.32 0.25 0.19 0.13 0.06 0.05 0.14 0.09 0.03 0.02 0.24 0.16 0.01 0.01c0.33,0.22 0.67,0.44 1.02,0.63l0.05 0.03 0.31 0.17 0.01 0.01 0.05 0.03 0.25 0.13 0.06 0.03 0.19 0.1 0.17 0.08 0.01 0 0.33 0.15 0.02 0.01 0.35 0.15 0.02 0 0.12 0.05 0.25 0.1 0.01 0 0.26 0.1 0.1 0.04 0.02 0.01 0.32 0.11 0.04 0.01 0.05 0.02 0.26 0.09 0.07 0.02 0.07 0.02 0.28 0.08 0.02 0.01 0.08 0.02 0.27 0.07 0.04 0.01 0.01 0 0.37 0.09 0.02 0 0.38 0.08 0 0c0.26,0.05 0.52,0.1 0.78,0.14l0.04 0c0.37,0.06 0.74,0.11 1.11,0.14l0.04 0c0.26,0.02 0.52,0.04 0.79,0.05l0.01 0 0.36 0.01 0.1 0 0.34 0 0.03 0c0.24,-0 0.47,-0.01 0.71,-0.02l0.06 -0 0.07 -0c0.46,-0.03 0.93,-0.07 1.39,-0.15 4.19,8.28 7.19,17.26 8.75,26.74 -1.08,0.56 -2.09,1.24 -3.03,2.02l-0.21 0.18 0 0 -0.21 0.18c-0.69,0.62 -1.32,1.29 -1.9,2.01l-0.03 0.04c-0.11,0.14 -0.22,0.28 -0.33,0.43l-0.17 0.22 -0.15 0.22 -0.02 0.03 -0.15 0.22 -0.15 0.23 -0.28 0.46 -0.05 0.08 -0.11 0.18 -0.14 0.24 -0.13 0.24 -0.01 0.02 -0.12 0.24 -0.13 0.25 -0.12 0.25 -0 0.01 -0.08 0.18 -0.04 0.07 -0.11 0.26c-0.07,0.17 -0.14,0.33 -0.2,0.5l-0.01 0.03 -0.1 0.26 0 0 -0.09 0.27 -0.09 0.26 -0.01 0.02 -0.07 0.23 -0.02 0.04 -0.08 0.28 -0.06 0.22 -0.02 0.06 -0.05 0.2 -0.02 0.08 -0.07 0.28 -0.01 0.04 -0.06 0.24 -0.01 0.06 -0.04 0.18 -0.01 0.05 -0.05 0.28 0 0 -0.05 0.29 -0.02 0.12 -0.02 0.17 -0.01 0.08 -0.03 0.21 -0.03 0.29 -0.01 0.08 -0 0.07 -0.03 0.33 -0 0.02 -0.01 0.09 -0.02 0.3 -0 0.04 -0.01 0.26 -0 0.17 0 0.03 -0 0.39 0 0 0 0 0 0.41 0 0.02 0 0.18 0.01 0.25 0 0.05 0.02 0.3 0 0.07 0 0.01 0.03 0.35 0 0.06 0.01 0.1 0.04 0.3 0 0.02 0.01 0.06c0.03,0.26 0.07,0.51 0.12,0.76l0 0.03 0.07 0.36 0.02 0.06c0.08,0.38 0.17,0.75 0.27,1.12l0.02 0.07 0.11 0.36 0 0 0.09 0.28 0.04 0.11 0.01 0.03 0.12 0.35 0 0.01 0.02 0.05c0.42,1.12 0.95,2.19 1.59,3.19l0.01 0.01c1.6,2.49 3.84,4.53 6.5,5.87 -1.47,9.46 -4.36,18.44 -8.45,26.74 -2.74,-0.48 -5.56,-0.26 -8.18,0.62l-0.01 0c-0.25,0.09 -0.5,0.18 -0.75,0.27l-0.04 0.02c-0.35,0.14 -0.7,0.29 -1.05,0.46l-0.01 0 -0.36 0.17 -0.01 0.01c-0.71,0.36 -1.39,0.77 -2.05,1.24l-0.02 0.01 -0.04 0.03c-0.2,0.15 -0.41,0.3 -0.61,0.45l-0.01 0.01c-0.21,0.17 -0.41,0.33 -0.61,0.5l-0.05 0.05 -0.23 0.21 -0.04 0.04 -0.04 0.04 -0.22 0.2 -0.05 0.04 -0.17 0.17 -0.13 0.13 -0.02 0.02 -0.26 0.27 -0 0 -0.2 0.22 -0.08 0.09 -0.05 0.05 -0.2 0.23 -0.03 0.04 -0.04 0.04 -0.19 0.23 -0.04 0.05 -0.15 0.19 -0.04 0.05 -0.14 0.18 -0 0.01 -0.19 0.25 0 0 -0.18 0.25 -0.07 0.1 -0.02 0.04 -0.17 0.26 -0.04 0.06 -0.04 0.06 -0.17 0.26 -0.02 0.04 -0.14 0.22 -0.03 0.06 -0.09 0.15 -0.17 0.3 -0.02 0.03 -0.14 0.27 -0.04 0.07 -0.1 0.19 -0.03 0.06 -0.1 0.2 -0 0.01 -0.13 0.27 -0 0.01 -0.11 0.26 -0.11 0.26 -0 0.01 -0.09 0.22 -0.02 0.06 -0.11 0.28 -0.02 0.05 -0.08 0.23 -0.02 0.06 -0.06 0.18 -0.04 0.13 -0.06 0.19 -0.09 0.28c-1.23,4.25 -0.7,8.83 1.42,12.68 -6.56,6.61 -14.1,12.24 -22.39,16.65l-0.33 -0.35 -0.01 -0.01 -0.27 -0.28 -0 -0 -0 -0c-0.28,-0.28 -0.57,-0.54 -0.86,-0.8l-0.02 -0.02c-0.29,-0.25 -0.59,-0.49 -0.9,-0.72l-0.04 -0.02 -0.02 -0.02c-0.21,-0.15 -0.42,-0.3 -0.63,-0.44l-0.04 -0.02c-0.32,-0.21 -0.65,-0.42 -0.98,-0.61l-0.02 -0.01 -0.26 -0.15 -0.07 -0.04 -0.03 -0.02 -0.26 -0.14 -0.06 -0.03 -0.1 -0.05 -0.26 -0.13 -0 -0c-0.58,-0.28 -1.19,-0.52 -1.8,-0.74l-0.04 -0.02 -0.07 -0.02c-2,-0.67 -4.13,-0.97 -6.29,-0.83l-0.02 0c-0.26,0.02 -0.51,0.04 -0.76,0.06l-0.05 0.01 -0.03 0c-0.53,0.06 -1.06,0.15 -1.58,0.26l-0.07 0.02 -0.32 0.07 -0.05 0.02 -0.02 0 -0.38 0.09 -0.04 0.02 -0.36 0.1 -0.03 0.01 -0.4 0.12 -0 0 -0.39 0.13 -0.03 0.01 -0.38 0.14 -0 0 -0.39 0.15 -0 0 -0.36 0.16 -0.06 0.02 -0.33 0.15 -0.04 0.02 -0.29 0.14 -0.07 0.04 -0 0 -0.28 0.14 -0.09 0.05 -0.06 0.04 -0.28 0.15 -0.04 0.02 -0.24 0.15 -0.1 0.06 -0 0 -0.26 0.16 -0.01 0.01 -0.16 0.1 -0.2 0.13 -0.06 0.04 -0.08 0.06 -0.25 0.17 -0 0 -0.24 0.18 -0.09 0.06 -0.16 0.12 -0.03 0.02 -0.21 0.17 -0.24 0.19 -0 0 -0.23 0.19 -0 0 -0.16 0.14 -0.13 0.11 -0.16 0.15 -0.22 0.21 0 0 -0.21 0.21 -0.01 0.01 -0.17 0.18 -0.05 0.05c-0.26,0.27 -0.52,0.55 -0.76,0.84l-0.05 0.06c-0.31,0.37 -0.61,0.76 -0.89,1.15l-0.01 0.02c-1.65,2.37 -2.68,5.16 -2.93,8.07 -4.8,0.76 -9.71,1.16 -14.72,1.16 -4.43,0 -8.79,-0.31 -13.06,-0.91 -0.02,-0.21 -0.04,-0.41 -0.06,-0.61l-0 -0.03 -0 -0.02c-0.04,-0.39 -0.1,-0.78 -0.17,-1.16l-0 -0.02c-0.05,-0.26 -0.1,-0.52 -0.16,-0.77l-0 -0.02 -0.02 -0.09 -0.07 -0.3 0 -0 -0.01 -0.04c-0.1,-0.37 -0.21,-0.74 -0.33,-1.11l-0 -0.01c-0.09,-0.25 -0.18,-0.5 -0.27,-0.74l-0 -0.01 -0.15 -0.37 -0.01 -0.02c-0.09,-0.22 -0.19,-0.43 -0.3,-0.65l-0.05 -0.1c-0.1,-0.2 -0.2,-0.41 -0.31,-0.61l-0.03 -0.05 0 -0 -0.17 -0.3 -0.05 -0.08c-0.12,-0.21 -0.24,-0.41 -0.37,-0.62l-0.02 -0.03c-0.21,-0.33 -0.43,-0.65 -0.66,-0.97l-0.02 -0.02 -0.17 -0.22 -0.02 -0.04 -0.11 -0.13 -0.06 -0.07 -0.13 -0.17 -0.25 -0.3 -0.01 -0c-0.16,-0.19 -0.33,-0.38 -0.5,-0.56l-0.04 -0.04 -0.07 -0.07 -0.21 -0.21 -0 -0 -0.29 -0.28 -0.29 -0.27 -0.01 -0.01 -0.26 -0.23 -0.04 -0.03 -0.02 -0.01c-0.3,-0.26 -0.61,-0.51 -0.93,-0.75l-0.03 -0.02 -0.25 -0.19 -0.05 -0.04 -0.2 -0.14 -0.13 -0.09 -0.02 -0.02 -0.31 -0.2 -0.01 -0.01 -0.04 -0.03 -0.27 -0.16 -0.04 -0.03 -0.23 -0.13 -0.13 -0.07 -0.04 -0.02 -0.27 -0.15 -0.06 -0.03 -0.06 -0.03 -0.28 -0.15 -0.03 -0.02 -0.26 -0.13 -0.12 -0.06 -0.07 -0.03 -0.24 -0.11 -0.08 -0.04 -0.07 -0.03 -0.3 -0.13 -0.02 -0.01 -0.37 -0.15 -0.03 -0.01 -0.19 -0.07 -0.21 -0.07 -0.03 -0.01 -0.31 -0.1 -0.07 -0.02 0 0 -0.31 -0.1 -0 0 -0.3 -0.09 -0.02 -0.01 -0.27 -0.07 -0.13 -0.03 -0.22 -0.06 -0.31 -0.07 -0.22 -0.05 -0.16 -0.03 -0.21 -0.04 -0.12 -0.02 -0.24 -0.04 -0 0 -0.31 -0.05 -0.28 -0.04 -0.04 -0c-0.21,-0.03 -0.41,-0.05 -0.62,-0.06l-0.31 -0.02 -0.01 0 -0.31 -0.02 -0.28 -0.01 -0.07 0 -0.28 -0 -0.29 0 -0.02 0 -0.31 0.01c-4.79,0.16 -9.3,2.39 -12.33,6.09 -8.3,-4.27 -15.87,-9.75 -22.49,-16.22 0.25,-0.39 0.48,-0.78 0.7,-1.19l0 -0 0.18 -0.35 0 -0.01 0.18 -0.36 0 0c0.11,-0.24 0.22,-0.48 0.32,-0.72l0.01 -0.02 0.15 -0.36 0.02 -0.03 0.11 -0.29 0.02 -0.05 0.09 -0.24 0.05 -0.14 0.01 -0.04 0.11 -0.33 0 -0.01 0.02 -0.07 0.09 -0.3 0.01 -0.02 0.1 -0.37 0.01 -0.04c0.06,-0.25 0.12,-0.5 0.17,-0.75l0 -0.01 0.07 -0.38 0 -0.01c0.05,-0.26 0.09,-0.51 0.12,-0.77l0 -0.01 0.01 -0.05 0.04 -0.3 0.01 -0.04 0.02 -0.26 0.01 -0.13 0 -0.04c0.02,-0.25 0.04,-0.5 0.05,-0.74l0 -0.01 0.01 -0.39 0 -0.01 0 -0.37 0 -0.04 -0.01 -0.33 -0 -0.05 0 -0.03c-0.01,-0.24 -0.02,-0.48 -0.04,-0.72l-0.01 -0.11 -0.03 -0.28 -0 -0.06 -0.01 -0.06 -0.04 -0.31 -0 -0.03 -0.06 -0.38 -0.01 -0.05 -0.05 -0.3 -0.01 -0.07 -0.02 -0.1 -0.06 -0.3 0 -0 -0.07 -0.31 -0.01 -0.02 -0.05 -0.21 -0.03 -0.13 -0.05 -0.19 -0.01 -0.06 -0.07 -0.26 -0.01 -0.04 -0.09 -0.3 -0.02 -0.05 -0 0 -0.11 -0.36 -0.02 -0.07 -0.1 -0.28 -0.02 -0.06 -0.03 -0.07 -0.11 -0.3 -0 -0.02 -0.11 -0.28 -0.04 -0.1 -0.04 -0.09 -0.09 -0.22 -0.03 -0.07 -0.05 -0.1 -0.13 -0.27 -0.01 -0.02 -0.15 -0.29 -0.09 -0.17 -0.12 -0.23 -0.03 -0.06 -0.19 -0.33 -0.01 -0.02 -0.03 -0.05 -0.17 -0.28 -0.02 -0.03 -0.22 -0.34 -0.02 -0.04c-0.15,-0.23 -0.31,-0.46 -0.47,-0.69l-0 0 -0.25 -0.33 -0.03 -0.04 -0.22 -0.28 -0.05 -0.06 -0.21 -0.26 -0.04 -0.05 -0.02 -0.03 -0.21 -0.25 -0.04 -0.04 -0.18 -0.2 -0.1 -0.11 -0.12 -0.13 -0.17 -0.18 -0.06 -0.06 -0.23 -0.22 -0.01 -0.01 -0.22 -0.21 -0.02 -0.02 -0.2 -0.18 -0.05 -0.05 -0.17 -0.15 -0.22 -0.19 -0.05 -0.04 -0.02 -0.02 -0.25 -0.2 -0.2 -0.15 -0.09 -0.07 -0.21 -0.16 -0.01 -0 -0.2 -0.15 -0.05 -0.04 -0.26 -0.18c-0.16,-0.11 -0.32,-0.22 -0.49,-0.32l-0.1 -0.06 -0.2 -0.12 -0.01 -0c-0.26,-0.15 -0.52,-0.3 -0.79,-0.44l-0.04 -0.02c-0.18,-0.09 -0.36,-0.18 -0.54,-0.27l-0.28 -0.13c-3.5,-1.57 -7.47,-1.91 -11.21,-0.89 -4.08,-8.18 -6.99,-17.05 -8.51,-26.38 2.83,-1.08 5.28,-2.92 7.13,-5.26l0 0 0.19 -0.24c0.37,-0.49 0.72,-1 1.03,-1.53l0 -0.01c0.26,-0.44 0.5,-0.9 0.73,-1.37l0.13 -0.27 0 -0.01 0.13 -0.28 0 -0c0.13,-0.28 0.24,-0.57 0.35,-0.87l0.1 -0.3 0.09 -0.28 0.01 -0.02 0.09 -0.27 0.01 -0.04 0.08 -0.29 0.08 -0.3 0 -0.01 0.07 -0.3 0 -0.01 0.06 -0.24 0.02 -0.11 0.05 -0.22 0.01 -0.04 0.06 -0.29 0 -0.02 0.05 -0.31 0.01 -0.07 0.04 -0.25 0.01 -0.08 0.02 -0.17 0.01 -0.07 0.03 -0.26 0.01 -0.06 0.03 -0.32 0 -0.04 0.02 -0.29 0 -0.05 0.01 -0.22 0 -0.06 0.01 -0.23 0 -0.1 0 -0.33 0 0 -0 -0.33 -0 -0.1 0 -0.05 -0.01 -0.29 -0.01 -0.17 0 -0.04 -0.02 -0.3 -0.03 -0.35 -0.01 -0.07 -0.03 -0.25 -0.02 -0.17 -0.01 -0.07 -0.05 -0.33 -0 -0.02 -0.01 -0.05 -0.05 -0.31 -0.01 -0.04 -0.01 -0.04 -0.06 -0.31 -0.01 -0.06 -0.04 -0.17 -0.05 -0.23 -0.09 -0.38 -0 -0.02 -0.09 -0.35 -0.03 -0.1c-0.07,-0.24 -0.14,-0.48 -0.22,-0.72l0 -0 -0.13 -0.36 -0.02 -0.06 -0.1 -0.27 -0.04 -0.1 -0.13 -0.3 -0.02 -0.04 -0.01 -0.03c-0.1,-0.24 -0.2,-0.47 -0.31,-0.7l-0.01 -0.02c-0.11,-0.22 -0.22,-0.45 -0.34,-0.67l-0.02 -0.04 -0.01 -0.01c-0.19,-0.34 -0.39,-0.68 -0.6,-1.01l-0.01 -0.01 -0.01 -0.02c-0.13,-0.21 -0.28,-0.42 -0.42,-0.63l-0.02 -0.04c-1.08,-1.51 -2.41,-2.84 -3.92,-3.92l-0.01 -0.01c-1.08,-0.77 -2.26,-1.41 -3.51,-1.91 1.61,-9.32 4.61,-18.17 8.78,-26.33 3.87,0.94 7.97,0.45 11.5,-1.34l0.27 -0.14 0.24 -0.13 0.04 -0.02c0.17,-0.1 0.34,-0.2 0.51,-0.3l0.26 -0.16 0.05 -0.03 0.21 -0.14 0.01 -0.01 0.22 -0.14 0.03 -0.02 0.21 -0.15 0.05 -0.03 0.25 -0.18 0.04 -0.03 0.21 -0.16 0.11 -0.09 0.06 -0.05 0.21 -0.17 0.05 -0.04 0.05 -0.04 0.24 -0.2 0.03 -0.02 0.21 -0.19 0.1 -0.09 0.06 -0.06 0.17 -0.16 0.07 -0.07 0.06 -0.06 0.22 -0.22 0.02 -0.02 0.2 -0.21 0.09 -0.09 0.05 -0.06 0.18 -0.19 0.06 -0.06 0.06 -0.07 0.21 -0.24 0 -0.01 0.01 -0.02 0.26 -0.3 0 -0.01 0.13 -0.17 0.13 -0.17 0.02 -0.04 0.23 -0.31 0 0 0.23 -0.33 0.03 -0.04 0.19 -0.28 0.03 -0.05 0.06 -0.08 0.17 -0.27 0 -0.01 0.21 -0.35 0.02 -0.03 0.19 -0.33 0.01 -0.02 0.15 -0.27 0.04 -0.08 0.01 -0.01 0.05 -0.1 0.13 -0.25 0.04 -0.07 0.13 -0.28 0.02 -0.05 0.04 -0.07 0.12 -0.28 0.01 -0.02c0.16,-0.37 0.3,-0.74 0.43,-1.12l0.01 -0.03 0.12 -0.36 0.01 -0.04c0.07,-0.24 0.15,-0.48 0.21,-0.73l0.01 -0.04 0.06 -0.25 0.04 -0.14 0.01 -0.03 0.07 -0.35 0 -0.01 0.01 -0.06c0.32,-1.56 0.41,-3.16 0.27,-4.73l0 -0.02c-0.21,-2.47 -0.98,-4.88 -2.25,-7.04 6.68,-6.45 14.32,-11.92 22.69,-16.15 1.66,1.83 3.7,3.24 5.96,4.17l0.04 0.02 0.25 0.1 0.28 0.11 0.2 0.07 0.11 0.04c0.35,0.12 0.7,0.23 1.06,0.33l0.03 0.01c0.47,0.13 0.94,0.24 1.42,0.32l0.29 0.05c0.37,0.06 0.75,0.11 1.13,0.15l0.05 0 0.06 0 0.24 0.02 0.02 0 0.26 0.02 0.02 0 0.28 0.01 0.02 0 0.3 0.01 0.2 0 0.2 0 0.09 0 0.11 0 0.07 -0 0.41 -0.01 0.12 -0.01 0.11 -0 0.19 -0.02 0.06 -0 0.23 -0.02 0.01 0 0.3 -0.03 0.27 -0.03 0.04 -0.01 0.26 -0.04 0.07 -0.01 0.26 -0.04 0.3 -0.06 0.06 -0.01 0.1 -0.02 0.23 -0.05 0.19 -0.04 0.11 -0.03 0.23 -0.05 0.3 -0.08 0.02 -0 0.26 -0.07 0.05 -0.01 0.27 -0.08 0.01 -0 0.3 -0.09 0 0 0.3 -0.1 0.03 -0.01 0.17 -0.06 0.09 -0.03 0.22 -0.08 0.01 -0 0.35 -0.14 0.04 -0.02 0.36 -0.15 0.03 -0.01 0.13 -0.06 0.26 -0.11 0.02 -0.01 0.27 -0.13 0.08 -0.04 0.08 -0.04c0.22,-0.11 0.43,-0.22 0.63,-0.34l0.02 -0.01 0.35 -0.2 0.02 -0.02c0.34,-0.2 0.67,-0.43 1,-0.65l0.04 -0.03c0.32,-0.23 0.64,-0.47 0.94,-0.72l0.01 -0.01 0.05 -0.04c0.19,-0.16 0.37,-0.32 0.55,-0.48l0.02 -0.01 0.29 -0.27 0.02 -0.01c0.77,-0.74 1.46,-1.55 2.07,-2.41l0 -0.01c0.54,-0.76 1.01,-1.56 1.41,-2.4l0 -0 0.15 -0.33 0.01 -0.03 0.15 -0.35 0.01 -0.02 0.15 -0.36 0.01 -0.03c0.39,-0.98 0.68,-2 0.87,-3.04l0 -0.01c0.06,-0.28 0.1,-0.57 0.14,-0.86 4.3,-0.61 8.69,-0.93 13.15,-0.93zm-27.67 169.78c-0.21,-0.03 -0.41,-0.05 -0.62,-0.06l0.62 0.06zm-43.15 -120.68c0.17,-0.1 0.35,-0.2 0.51,-0.3l-0.51 0.3zm-0.44 86.62c-0.18,-0.09 -0.36,-0.18 -0.54,-0.27l0.54 0.27z"/>
     <circle fill="#BEBEBE" stroke="#BEBEBE" stroke-width="6.94" stroke-miterlimit="2.61313" cx="1172.64" cy="1982.58" r="52.83"/>
     <circle fill="#3B3838" stroke="#3B3838" stroke-width="6.94" stroke-miterlimit="2.61313" cx="1172.64" cy="1982.58" r="18.28"/>
    </g>
   </g>
  </g>
  <g>
   <text x="3274.16" y="423.34"  fill="#005555" font-weight="bold" font-size="83.33px" font-family="JetBrains Mono">/pump</text>
   <text x="3059.38" y="166.35"  fill="#2B2A29" font-weight="bold" font-size="111.11px" font-family="Arial">Flowchem Server</text>
   <text x="3167.01" y="310.12"  fill="#005555" font-weight="800" font-size="83.33px" font-family="JetBrains Mono ExtraBold">/pump1</text>
   <text x="3324.09" y="534.89"  fill="#005555" font-weight="500" font-size="83.33px" font-family="JetBrains Mono Medium">/infuse</text>
   <text x="3321.96" y="621.43"  fill="#005555" font-weight="500" font-size="83.33px" font-family="JetBrains Mono Medium">/</text>
   <text x="3371.96" y="621.43"  fill="#005555" font-weight="500" font-size="83.33px" font-family="JetBrains Mono Medium">stop</text>
   <text x="3323.38" y="704.75"  fill="#005555" font-weight="500" font-size="83.33px" font-family="JetBrains Mono Medium">/</text>
   <text x="3373.38" y="704.75"  fill="#005555" font-weight="500" font-size="83.33px" font-family="JetBrains Mono Medium">is-pumping</text>
   <text x="3274.16" y="795.17"  fill="#005555" font-weight="bold" font-size="83.33px" font-family="JetBrains Mono">/p</text>
   <text x="3374.16" y="795.17"  fill="#005555" font-weight="bold" font-size="83.33px" font-family="JetBrains Mono">ressure</text>
   <text x="3323.94" y="904.53"  fill="#005555" font-weight="500" font-size="83.33px" font-family="JetBrains Mono Medium">/</text>
   <text x="3623.94" y="904.53"  fill="#005555" font-weight="500" font-size="83.33px" font-family="JetBrains Mono Medium">p</text>
   <text x="3373.94" y="904.53"  fill="#005555" font-weight="500" font-size="83.33px" font-family="JetBrains Mono Medium">read</text>
   <text x="3673.94" y="904.53"  fill="#005555" font-weight="500" font-size="83.33px" font-family="JetBrains Mono Medium">ressure</text>
   <text x="3573.94" y="904.53"  fill="#005555" font-weight="500" font-size="83.33px" font-family="JetBrains Mono Medium">-</text>
   <text x="3167.01" y="1124.17"  fill="#636912" font-weight="800" font-size="83.33px" font-family="JetBrains Mono ExtraBold">/</text>
   <text x="3217.01" y="1124.17"  fill="#636912" font-weight="800" font-size="83.33px" font-family="JetBrains Mono ExtraBold">inj-valve</text>
   <text x="3203.19" y="1245.02"  fill="#636912" font-weight="500" font-size="83.33px" font-family="JetBrains Mono Medium">/position</text>
   <text x="3167.01" y="1836.7"  fill="#773E00" font-weight="800" font-size="83.33px" font-family="JetBrains Mono ExtraBold">/</text>
   <text x="3217.01" y="1836.7"  fill="#773E00" font-weight="800" font-size="83.33px" font-family="JetBrains Mono ExtraBold">flowIR</text>
   <g>
    <polygon fill="#727271" points="2992.9,187.81 2972.35,152.21 2951.79,116.6 2992.9,116.6 3034.02,116.6 3013.46,152.21 "/>
    <polygon fill="#727271" points="3125.81,317.44 3105.26,281.83 3084.7,246.22 3125.81,246.22 3166.93,246.22 3146.37,281.83 "/>
    <polygon fill="#727271" points="3245.81,428.65 3225.26,393.04 3204.7,357.44 3245.81,357.44 3286.93,357.44 3266.37,393.04 "/>
    <polygon fill="#727271" points="3245.81,800.48 3225.26,764.88 3204.7,729.27 3245.81,729.27 3286.93,729.27 3266.37,764.88 "/>
    <polygon fill="#727271" points="3125.81,1131.48 3105.26,1095.87 3084.7,1060.27 3125.81,1060.27 3166.93,1060.27 3146.37,1095.87 "/>
    <polygon fill="#727271" points="3125.81,1844.01 3105.26,1808.41 3084.7,1772.8 3125.81,1772.8 3166.93,1772.8 3146.37,1808.41 "/>
   </g>
   <text x="3203.19" y="1957.56"  fill="#773E00" font-weight="500" font-size="83.33px" font-family="JetBrains Mono Medium">/</text>
   <text x="3253.19" y="1957.56"  fill="#773E00" font-weight="500" font-size="83.33px" font-family="JetBrains Mono Medium">acquire-spectrum</text>
   <g>
    <line fill="none" stroke="#898989" stroke-width="13.89" stroke-miterlimit="2.61313" x1="3069.2" y1="285" x2="2992.9" y2= "285" />
    <line fill="none" stroke="#898989" stroke-width="13.89" stroke-miterlimit="2.61313" x1="3202.11" y1="397.44" x2="3125.81" y2= "397.44" />
    <line fill="none" stroke="#898989" stroke-width="13.89" stroke-miterlimit="2.61313" x1="3322.11" y1="508.65" x2="3245.81" y2= "508.65" />
    <line fill="none" stroke="#898989" stroke-width="13.89" stroke-miterlimit="2.61313" x1="3322.11" y1="588.65" x2="3245.81" y2= "588.65" />
    <g>
     <path fill="#898989" fill-rule="nonzero" d="M3245.81 661.7l76.3 0 0 13.89 -76.3 0 -6.94 -6.94 6.94 -6.94zm0 13.89l-6.94 0 0 -6.94 6.94 6.94zm6.94 -226.94l0 220 -13.89 0 0 -220 13.89 0z"/>
    </g>
    <polyline fill="none" stroke="#898989" stroke-width="13.89" stroke-miterlimit="2.61313" points="3202.11,767.23 3125.81,767.23 3125.81,337.44 "/>
    <g>
     <path fill="#898989" fill-rule="nonzero" d="M3245.81 873.54l76.3 0 0 13.89 -76.3 0 -6.94 -6.94 6.94 -6.94zm0 13.89l-6.94 0 0 -6.94 6.94 6.94zm6.94 -66.94l0 60 -13.89 0 0 -60 13.89 0z"/>
    </g>
    <line fill="none" stroke="#898989" stroke-width="13.89" stroke-miterlimit="2.61313" x1="3069.2" y1="1099.05" x2="2992.9" y2= "1099.05" />
    <polyline fill="none" stroke="#898989" stroke-width="13.89" stroke-miterlimit="2.61313" points="3202.11,1211.48 3125.81,1211.48 3125.81,1151.48 "/>
    <polyline fill="none" stroke="#898989" stroke-width="13.89" stroke-miterlimit="2.61313" points="3069.2,1806.62 2992.9,1806.62 2992.9,219.07 "/>
    <polyline fill="none" stroke="#898989" stroke-width="13.89" stroke-miterlimit="2.61313" points="3202.11,2084.01 3125.81,2084.01 3125.81,1864.01 "/>
    <line fill="none" stroke="#898989" stroke-width="13.89" stroke-miterlimit="2.61313" x1="3202.11" y1="1924.01" x2="3125.81" y2= "1924.01" />
    <line fill="none" stroke="#898989" stroke-width="13.89" stroke-miterlimit="2.61313" x1="3202.11" y1="2004.01" x2="3125.81" y2= "2004.01" />
   </g>
   <text x="3203.19" y="2040.9" id="IRstop" fill="#773E00" font-weight="500" font-size="83.33px" font-family="JetBrains Mono Medium">/</text>
   <text x="3253.19" y="2040.9" id="IRstop" fill="#773E00" font-weight="500" font-size="83.33px" font-family="JetBrains Mono Medium">stop</text>
   <text x="3203.19" y="2125.64" id="spectrum-count" fill="#773E00" font-weight="500" font-size="83.33px" font-family="JetBrains Mono Medium">/</text>
   <text x="3253.19" y="2125.64" id="spectrum-count" fill="#773E00" font-weight="500" font-size="83.33px" font-family="JetBrains Mono Medium">spectrum-count</text>
  </g>
  <text x="245.71" y="166.35" id="instrument_x002f_devices" fill="#2B2A29" font-weight="bold" font-size="111.11px" font-family="Arial">Instruments / Devices</text>
 </g>
</svg>
