<?xml version="1.0" encoding="UTF-8"?>
<!DOCTYPE svg PUBLIC "-//W3C//DTD SVG 1.1//EN" "http://www.w3.org/Graphics/SVG/1.1/DTD/svg11.dtd">
<!-- Creator: CorelDRAW -->
<svg xmlns="http://www.w3.org/2000/svg" xml:space="preserve" width="8.26772in" height="3.93701in" version="1.1" style="shape-rendering:geometricPrecision; text-rendering:geometricPrecision; image-rendering:optimizeQuality; fill-rule:evenodd; clip-rule:evenodd"
viewBox="0 0 8267.72 3937.01"
 xmlns:xlink="http://www.w3.org/1999/xlink"
 xmlns:xodm="http://www.corel.com/coreldraw/odm/2003">
 <defs>
  <style type="text/css">
   <![CDATA[
    .str0 {stroke:#2B2A29;stroke-width:55.56;stroke-miterlimit:2.61313}
    .fil1 {fill:none}
    .fil0 {fill:#005555}
    .fil2 {fill:#221F20}
   ]]>
  </style>
 </defs>
 <g id="Layer_x0020_1">
  <metadata id="CorelCorpID_0Corel-Layer"/>
  <path class="fil0" d="M1020.24 3818.96l-490.98 0 0 -192.98 84.8 0 0 -420.44 -87.58 0 0 -193.78 795.52 0 0 266.3 -214.78 0 0 -72.52 -180.5 0 0 124.04 139.29 0 0 164.06 -139.29 0 0 132.35 93.52 0 0 192.98zm761.83 0l-404 0 0 -176.93 59.83 0 0 -453.33 -59.83 0 0 -176.94 352.29 0 0 630.27 51.71 0 0 176.93z"/>
  <path class="fil0" d="M4400.42 3476.39l211.77 74.3c-18.57,85.45 -59.44,156.04 -122.6,211.77 -66.87,55.73 -156.04,81.74 -267.49,81.74 -156.04,0 -267.5,-40.87 -341.8,-118.89 -78.02,-81.74 -115.17,-182.05 -115.17,-297.22 0,-115.17 37.15,-215.48 111.45,-297.22 74.31,-81.74 167.19,-122.6 286.07,-122.6 92.88,0 170.89,22.29 230.34,70.59l0 -55.72 193.19 0 0 297.21 -200.62 0c-11.15,-37.15 -29.72,-66.87 -52.02,-89.17 -26,-18.57 -55.73,-29.72 -85.44,-29.72 -89.17,0 -130.03,74.3 -130.03,226.63 0,148.61 44.58,226.63 133.75,226.63 78.02,0 130.03,-59.44 148.6,-178.33zm731.9 356.66l-445.82 0 0 -178.33 74.3 0 0 -453.25 -74.3 0 0 -178.33 367.8 0 0 312.07c78.02,-52.02 152.32,-74.31 230.34,-74.31 63.16,0 115.17,18.58 156.04,55.73 37.15,37.15 55.73,107.74 55.73,204.33l0 133.75 66.87 0 0 178.33 -356.66 0 0 -230.34c0,-70.59 -3.72,-115.17 -11.15,-133.74 -11.15,-14.86 -29.72,-26.01 -55.72,-26.01 -26.01,0 -55.73,11.15 -85.45,29.72l0 182.05 78.02 0 0 178.33zm806.19 -326.94l167.18 0c0,-11.15 0,-18.57 0,-18.57 0,-29.72 -7.43,-55.72 -22.29,-78.02 -14.86,-18.57 -37.15,-29.72 -63.16,-29.72 -26.01,0 -44.58,11.15 -59.44,33.44 -14.86,22.29 -22.29,48.3 -22.29,81.73 0,3.72 0,7.44 0,11.15zm185.76 148.61l241.49 29.72c-11.15,26.01 -26.01,48.3 -44.58,66.87 -18.57,18.58 -40.87,37.15 -70.59,52.02 -55.73,29.72 -122.6,44.58 -200.62,44.58 -130.03,0 -230.34,-26.01 -297.21,-81.74 -66.87,-52.01 -100.31,-126.32 -100.31,-211.77 0,-85.44 33.44,-159.75 100.31,-215.48 63.16,-55.73 152.32,-85.45 263.78,-85.45 104.03,0 193.19,26.01 260.07,81.74 63.16,52.01 100.31,133.75 104.03,245.2l-442.11 0c0,89.17 33.44,137.46 100.31,137.46 40.87,0 70.59,-22.29 85.45,-63.16zm802.48 178.33l-442.11 0 0 -178.33 70.59 0 0 -208.05 -70.59 0 0 -178.33 364.09 0 0 78.02c26.01,-22.29 63.16,-44.58 107.74,-63.16 44.58,-14.86 89.17,-22.29 130.03,-22.29 92.88,0 159.76,33.44 189.48,107.74 89.16,-74.31 174.61,-107.74 267.49,-107.74 48.3,0 89.17,7.43 118.89,29.72 33.43,22.29 55.72,48.3 70.59,85.45 11.15,37.15 18.57,85.45 18.57,152.32l0 126.32 74.31 0 0 178.33 -364.09 0 0 -241.49c0,-63.16 -7.43,-104.03 -14.86,-118.89 -11.15,-14.85 -29.72,-22.29 -52.02,-22.29 -33.44,0 -66.87,11.15 -96.59,33.43l0 170.9 78.02 0 0 178.33 -371.52 0 0 -241.49c0,-63.16 -3.71,-100.31 -11.15,-118.89 -7.43,-14.85 -26,-22.29 -52.01,-22.29 -29.72,0 -63.16,11.15 -92.88,33.43l0 170.9 78.02 0 0 178.33z"/>
  <path class="fil0" d="M2454.15 3437.36l16.54 45.89c-4,-15.96 -9.52,-31.26 -16.54,-45.89zm528.95 401.85l-231.03 0 -172.37 -393.5 -60.44 0 0 -88.57 0 -88.56 379.63 0 0 177.33 -56.27 0 66.18 187.63 138.7 -364.96 216.57 0 126.41 364.96 72.12 -187.63 -54.09 0 0 -177.33 274.61 0 0 177.13 -55.08 0 -163.66 393.5 -231.61 0 -128.99 -288.88 -120.67 288.88z"/>
  <g id="_2592096224720">
   <circle class="fil1 str0" cx="2153.17" cy="3519.67" r="260.79"/>
   <line class="fil1 str0" x1="2034.82" y1="3287.63" x2="2394.46" y2= "3536.12" />
   <line class="fil1 str0" x1="2033.68" y1="3756.24" x2="2393.32" y2= "3507.76" />
  </g>
  <g id="_2592096223136">
   <path class="fil2" d="M3528.3 82.47l0 792.5c-0.7,498.7 1.04,888.81 471,1164.57 157.63,92.5 232.13,81.01 419.75,122.17l4.35 587.34 317.9 0 0.38 -591.31 920.85 -2.54 -4.34 -318.81 -916.56 -7.39c0,-279.15 -31.7,-558.33 89.8,-754.7 127.66,-206.31 315.62,-283.34 561.94,-282.94 392.58,0.65 790.8,-78.04 1013.83,268.7 79.98,124.35 71.74,158.21 94.18,315.37l2.65 1323.19 327.76 0.48 0.45 -1177.75c0,-204.44 13.99,-174.73 -28.29,-357.8 -91.22,-394.96 -476.35,-697.97 -868.35,-702.96 -174.2,-8.33 -545.68,-12.24 -706.63,10.34 -217.82,30.56 -369.94,105.78 -503.01,226.19 -123.98,112.18 -225.65,253.36 -278.43,451.91 -56.07,210.89 -13.74,444 -29.79,679.1 -165.79,12.07 -329.28,-106.37 -398.93,-183.41 -107.24,-118.63 -153.24,-219.53 -163.18,-428.03 -13.02,-273.02 19.38,-1006.2 -5.35,-1179.8 -78.39,18.84 -215.87,6.45 -302.35,6.45 -26.79,11.12 -14.46,-10.45 -19.62,39.12z"/>
   <path class="fil2" d="M2390.66 899.4l-234.01 -0.3 -1.33 -815.01 -306.93 0.4c-27.88,22.48 -10.14,-18.15 -19.66,39.44l0.57 775.04 -856.09 0.37 -0.5 330.04 856.54 0 1.53 802.18 325.87 -5.1 0.09 -797.08c212.35,0 328,-9.76 484.96,92.78 104.98,68.58 204.41,173.94 248.36,325.49 56.65,195.31 28.24,861.13 28.24,1114.83l322.42 -5.23c0,-224.3 0,-448.59 0,-672.88 0,-229.53 12.41,-411.44 -66.95,-605.89 -96.92,-237.48 -273.59,-413.82 -512.61,-509.41 -93.25,-37.29 -177.27,-44.43 -270.52,-69.68z"/>
  </g>
 </g>
</svg>
